<?xml version="1.0" encoding="utf-8" ?>
<svg baseProfile="tiny" height="43.730333333333334mm" version="1.2" viewBox="0 0 35.941 43.730333333333334" width="35.941mm" xmlns="http://www.w3.org/2000/svg" xmlns:ev="http://www.w3.org/2001/xml-events" xmlns:xlink="http://www.w3.org/1999/xlink"><defs /><path d="M 17.610666666666667,0.0 L 7.196666666666667,1.8626666666666667 L 6.011333333333333,2.3706666666666667 L 4.995333333333333,3.175 L 3.048,5.969 L 1.1853333333333333,10.16 L 0.042333333333333334,15.24 L 0.0,18.161 L 0.762,20.701 L 2.4130000000000003,23.706666666666667 L 4.0216666666666665,25.484666666666666 L 6.265333333333333,27.389666666666667 L 6.646333333333334,35.263666666666666 L 17.610666666666667,43.688 L 18.203333333333333,43.730333333333334 L 29.294666666666668,35.221333333333334 L 29.591,27.516666666666666 L 32.342666666666666,25.019000000000002 L 34.163000000000004,22.648333333333333 L 35.602333333333334,19.431 L 35.941,16.848666666666666 L 35.51766666666667,13.250333333333334 L 34.501666666666665,9.567333333333334 L 32.893,6.0536666666666665 L 30.945666666666668,3.2173333333333334 L 29.887333333333334,2.3706666666666667 L 28.702,1.8626666666666667 L 25.527,1.4393333333333334 L 22.86,0.6773333333333333 Z" fill="black" /></svg>