<?xml version="1.0" encoding="utf-8" ?>
<svg baseProfile="tiny" height="45.67766666666667mm" version="1.2" viewBox="0 0 25.569333333333333 45.67766666666667" width="25.569333333333333mm" xmlns="http://www.w3.org/2000/svg" xmlns:ev="http://www.w3.org/2001/xml-events" xmlns:xlink="http://www.w3.org/1999/xlink"><defs /><path d="M 11.599333333333334,0.0 L 8.382,0.42333333333333334 L 5.08,1.397 L 2.2013333333333334,2.751666666666667 L 0.5503333333333333,4.360333333333333 L 0.042333333333333334,5.672666666666666 L 0.042333333333333334,6.900333333333333 L 3.1326666666666667,12.954 L 3.175,13.673666666666668 L 2.8786666666666667,14.308666666666667 L 1.524,15.705666666666668 L 0.5503333333333333,17.441333333333333 L 0.0,19.304000000000002 L 0.0,21.547666666666668 L 1.0583333333333333,24.468666666666667 L 12.615333333333334,45.635333333333335 L 12.869333333333334,45.67766666666667 L 19.939,32.93533333333333 L 25.230666666666668,22.733 L 25.569333333333333,21.039666666666665 L 25.273,18.24566666666667 L 24.426333333333332,16.340666666666667 L 22.521333333333335,14.097 L 22.352,13.123333333333333 L 25.146,7.916333333333333 L 25.484666666666666,5.8420000000000005 L 24.892,4.191 L 24.214666666666666,3.3866666666666667 L 21.166666666666668,1.6933333333333334 L 16.256,0.254 Z" fill="black" /></svg>