<?xml version="1.0" encoding="utf-8" ?>
<svg baseProfile="tiny" height="49.614666666666665mm" version="1.2" viewBox="0 0 30.183666666666667 49.614666666666665" width="30.183666666666667mm" xmlns="http://www.w3.org/2000/svg" xmlns:ev="http://www.w3.org/2001/xml-events" xmlns:xlink="http://www.w3.org/1999/xlink"><defs /><path d="M 9.398,0.0 L 7.112,1.143 L 5.08,2.6246666666666667 L 3.048,4.783666666666667 L 1.27,7.789333333333333 L 0.042333333333333334,11.938 L 0.042333333333333334,16.679333333333332 L 0.381,19.642666666666667 L 2.1166666666666667,27.813 L 5.0376666666666665,35.433 L 7.281333333333333,39.624 L 10.033,43.772666666666666 L 15.113,49.614666666666665 L 19.981333333333332,44.02666666666667 L 22.013333333333335,41.021 L 24.934333333333335,35.85633333333333 L 26.881666666666668,31.326666666666668 L 28.40566666666667,26.585333333333335 L 29.591,20.997333333333334 L 30.183666666666667,14.181666666666667 L 29.972,11.133666666666667 L 28.956,7.916333333333333 L 27.051000000000002,4.699 L 24.934333333333335,2.4976666666666665 L 22.394333333333332,0.762 L 20.701,0.0 L 17.991666666666667,3.5983333333333336 L 15.113,6.773333333333333 L 12.657666666666668,4.148666666666667 Z" fill="black" /></svg>