<?xml version="1.0" encoding="utf-8" ?>
<svg baseProfile="tiny" height="45.80466666666667mm" version="1.2" viewBox="0 0 33.86666666666667 45.80466666666667" width="33.86666666666667mm" xmlns="http://www.w3.org/2000/svg" xmlns:ev="http://www.w3.org/2001/xml-events" xmlns:xlink="http://www.w3.org/1999/xlink"><defs /><path d="M 2.4130000000000003,0.16933333333333334 L 0.9736666666666667,1.143 L 0.0,3.175 L 0.042333333333333334,5.8420000000000005 L 1.3546666666666667,10.795 L 3.302,15.790333333333333 L 7.450666666666667,24.13 L 8.847666666666667,27.559 L 9.990666666666666,31.411333333333335 L 11.049,37.803666666666665 L 12.149666666666667,42.07933333333333 L 13.081,43.60333333333333 L 14.393333333333334,44.788666666666664 L 16.383,45.80466666666667 L 17.568333333333335,45.80466666666667 L 19.939,44.534666666666666 L 21.082,43.307 L 22.013333333333335,41.529 L 23.283333333333335,35.814 L 23.96066666666667,31.369 L 25.061333333333334,27.601333333333333 L 26.500666666666667,24.087666666666667 L 30.607,15.832666666666666 L 32.85066666666667,9.906 L 33.86666666666667,5.715 L 33.782000000000004,2.794 L 33.02,1.2276666666666667 L 31.919333333333334,0.33866666666666667 L 29.972,0.0 L 28.956,0.254 L 27.643666666666668,0.889 L 26.162,2.1166666666666667 L 22.098,6.8580000000000005 L 20.912666666666667,4.8260000000000005 L 19.939,3.767666666666667 L 16.848666666666666,2.3706666666666667 L 13.97,3.81 L 11.726333333333333,6.8580000000000005 L 8.212666666666667,2.5823333333333336 L 6.731,1.1853333333333333 L 4.572,0.127 Z" fill="black" /></svg>