<?xml version="1.0" encoding="utf-8" ?>
<svg baseProfile="tiny" height="41.867666666666665mm" version="1.2" viewBox="0 0 25.442333333333334 41.867666666666665" width="25.442333333333334mm" xmlns="http://www.w3.org/2000/svg" xmlns:ev="http://www.w3.org/2001/xml-events" xmlns:xlink="http://www.w3.org/1999/xlink"><defs /><path d="M 7.662333333333334,0.0 L 5.122333333333334,1.4393333333333334 L 3.175,3.2173333333333334 L 1.905,4.910666666666667 L 0.889,6.900333333333333 L 0.0,10.329333333333334 L 0.0,14.097 L 0.33866666666666667,17.314333333333334 L 1.016,21.166666666666668 L 2.1166666666666667,25.188333333333333 L 4.868333333333333,31.834666666666667 L 6.985,35.433 L 10.033,39.666333333333334 L 12.149666666666667,41.82533333333333 L 13.165666666666667,41.867666666666665 L 14.774333333333333,40.428333333333335 L 17.907,36.364333333333335 L 19.939,33.147 L 22.563666666666666,27.474333333333334 L 23.918333333333333,23.368000000000002 L 24.934333333333335,18.838333333333335 L 25.442333333333334,14.266333333333334 L 25.4,9.906 L 24.680333333333333,7.112 L 23.241,4.402666666666667 L 20.997333333333334,1.905 L 19.05,0.5926666666666667 L 17.822333333333333,0.0 L 17.272,0.16933333333333334 L 13.208,5.0376666666666665 L 12.573,5.164666666666667 L 11.726333333333333,4.487333333333334 L 8.339666666666666,0.254 Z" fill="black" /></svg>