<?xml version="1.0" encoding="utf-8" ?>
<svg baseProfile="tiny" height="44.61933333333334mm" version="1.2" viewBox="0 0 34.29 44.61933333333334" width="34.29mm" xmlns="http://www.w3.org/2000/svg" xmlns:ev="http://www.w3.org/2001/xml-events" xmlns:xlink="http://www.w3.org/1999/xlink"><defs /><path d="M 1.9896666666666667,0.08466666666666667 L 0.6773333333333333,1.9473333333333334 L 0.042333333333333334,4.656666666666666 L 0.0,7.958666666666667 L 1.0583333333333333,11.557 L 3.0903333333333336,16.59466666666667 L 8.763,27.728333333333335 L 9.990666666666666,31.115000000000002 L 11.049,32.596666666666664 L 11.726333333333333,34.417 L 11.980333333333334,36.15266666666667 L 12.784666666666666,37.422666666666665 L 11.895666666666667,38.05766666666667 L 11.260666666666667,39.243 L 11.387666666666666,40.894 L 12.996333333333334,42.46033333333333 L 14.266333333333334,42.968333333333334 L 16.637,44.61933333333334 L 17.610666666666667,44.61933333333334 L 20.023666666666667,42.968333333333334 L 21.92866666666667,42.037 L 22.987000000000002,40.68233333333333 L 22.944666666666667,39.07366666666667 L 22.479,38.184666666666665 L 21.505333333333333,37.38033333333333 L 22.436666666666667,35.72933333333334 L 22.521333333333335,34.544 L 23.198666666666668,32.639 L 24.72266666666667,30.183666666666667 L 25.4,27.94 L 31.157333333333334,16.637 L 33.18933333333334,11.599333333333334 L 34.29,7.408333333333333 L 33.782000000000004,2.4553333333333334 L 32.512,0.254 L 32.004,0.0 L 31.157333333333334,0.08466666666666667 L 28.998333333333335,1.2276666666666667 L 27.051000000000002,2.836333333333333 L 21.632333333333335,8.805333333333333 L 19.939,7.196666666666667 L 17.399,5.926666666666667 L 16.679333333333332,5.969 L 15.028333333333334,6.773333333333333 L 12.615333333333334,8.763 L 9.144,4.699 L 5.926666666666667,1.6933333333333334 L 3.556,0.254 Z" fill="black" /></svg>