<?xml version="1.0" encoding="utf-8" ?>
<svg baseProfile="tiny" height="45.76233333333333mm" version="1.2" viewBox="0 0 34.07833333333333 45.76233333333333" width="34.07833333333333mm" xmlns="http://www.w3.org/2000/svg" xmlns:ev="http://www.w3.org/2001/xml-events" xmlns:xlink="http://www.w3.org/1999/xlink"><defs /><path d="M 15.578666666666667,0.0 L 10.033,0.5926666666666667 L 6.815666666666667,1.3546666666666667 L 3.048,2.6246666666666667 L 1.3546666666666667,3.8946666666666667 L 0.508,5.757333333333333 L 0.5926666666666667,7.323666666666667 L 1.1006666666666667,8.551333333333334 L 3.4713333333333334,11.895666666666667 L 3.6406666666666667,12.827 L 3.302,13.546666666666667 L 1.1853333333333333,15.790333333333333 L 0.042333333333333334,18.711333333333332 L 0.0,20.828 L 0.6773333333333333,23.283333333333335 L 2.159,25.738666666666667 L 16.764,45.72 L 17.229666666666667,45.76233333333333 L 32.893,24.257 L 33.909,21.759333333333334 L 34.07833333333333,19.642666666666667 L 33.739666666666665,17.737666666666666 L 33.062333333333335,16.171333333333333 L 30.43766666666667,12.911666666666667 L 30.607,11.853333333333333 L 32.977666666666664,8.509 L 33.48566666666667,7.239 L 33.48566666666667,5.5456666666666665 L 32.639,3.81 L 31.496000000000002,2.8786666666666667 L 29.972,2.2013333333333334 L 25.188333333333333,0.8466666666666667 L 20.023666666666667,0.08466666666666667 Z" fill="black" /></svg>