<?xml version="1.0" encoding="utf-8" ?>
<svg baseProfile="tiny" height="42.629666666666665mm" version="1.2" viewBox="0 0 30.268333333333334 42.629666666666665" width="30.268333333333334mm" xmlns="http://www.w3.org/2000/svg" xmlns:ev="http://www.w3.org/2001/xml-events" xmlns:xlink="http://www.w3.org/1999/xlink"><defs /><path d="M 14.266333333333334,0.0 L 11.472333333333333,0.42333333333333334 L 8.636,1.4393333333333334 L 6.434666666666667,2.667 L 3.6406666666666667,5.249333333333333 L 1.9473333333333334,7.662333333333334 L 0.6773333333333333,10.583333333333334 L 0.042333333333333334,13.250333333333334 L 0.0,16.256 L 0.42333333333333334,18.923000000000002 L 1.4393333333333334,22.606 L 3.2173333333333334,27.051000000000002 L 5.08,30.691666666666666 L 7.408333333333333,34.33233333333333 L 9.990666666666666,37.67666666666667 L 12.784666666666666,40.59766666666667 L 15.197666666666667,42.629666666666665 L 18.499666666666666,39.58166666666667 L 20.955000000000002,36.83 L 24.045333333333332,32.596666666666664 L 25.950333333333333,29.294666666666668 L 27.855333333333334,25.146 L 29.167666666666666,21.378333333333334 L 29.972,18.372666666666667 L 30.268333333333334,14.520333333333333 L 29.972,11.938 L 28.913666666666668,8.847666666666667 L 27.220333333333333,6.011333333333333 L 25.188333333333333,3.81 L 22.733,2.032 L 19.981333333333332,0.762 L 16.933333333333334,0.08466666666666667 Z" fill="black" /></svg>