<?xml version="1.0" encoding="utf-8" ?>
<svg baseProfile="tiny" height="45.67766666666667mm" version="1.2" viewBox="0 0 30.226 45.67766666666667" width="30.226mm" xmlns="http://www.w3.org/2000/svg" xmlns:ev="http://www.w3.org/2001/xml-events" xmlns:xlink="http://www.w3.org/1999/xlink"><defs /><path d="M 15.028333333333334,0.0 L 12.022666666666666,0.8043333333333333 L 9.186333333333334,2.1166666666666667 L 6.307666666666667,4.148666666666667 L 3.9370000000000003,6.604 L 1.9473333333333334,9.694333333333333 L 0.6773333333333333,12.911666666666667 L 0.042333333333333334,15.705666666666668 L 0.0,19.812 L 1.143,25.654 L 3.259666666666667,31.284333333333333 L 5.08,34.75566666666667 L 6.985,37.63433333333333 L 9.990666666666666,41.31733333333334 L 13.419666666666666,44.492333333333335 L 15.197666666666667,45.67766666666667 L 18.24566666666667,43.22233333333333 L 21.209,40.17433333333334 L 24.595666666666666,35.644666666666666 L 26.246666666666666,32.72366666666667 L 27.897666666666666,29.040666666666667 L 29.040666666666667,25.654 L 29.929666666666666,21.844 L 30.226,17.060333333333332 L 29.929666666666666,14.393333333333334 L 28.871333333333332,11.049 L 27.262666666666668,8.001 L 25.527,5.715 L 23.156333333333333,3.556 L 20.701,1.9473333333333334 L 18.288,0.8466666666666667 Z" fill="black" /></svg>