<?xml version="1.0" encoding="utf-8" ?>
<svg baseProfile="tiny" height="41.952333333333335mm" version="1.2" viewBox="0 0 29.972 41.952333333333335" width="29.972mm" xmlns="http://www.w3.org/2000/svg" xmlns:ev="http://www.w3.org/2001/xml-events" xmlns:xlink="http://www.w3.org/1999/xlink"><defs /><path d="M 9.482666666666667,0.0 L 7.281333333333333,1.1006666666666667 L 5.08,2.751666666666667 L 3.556,4.360333333333333 L 2.032,6.5616666666666665 L 0.9313333333333333,8.932333333333334 L 0.0,12.954 L 0.042333333333333334,16.002 L 0.8466666666666667,19.812 L 2.286,24.299333333333333 L 3.9793333333333334,28.194 L 6.011333333333333,31.877 L 10.033,37.29566666666667 L 14.732,41.910000000000004 L 15.24,41.952333333333335 L 18.499666666666666,38.946666666666665 L 21.547666666666668,35.433 L 24.045333333333332,31.919333333333334 L 26.37366666666667,27.601333333333333 L 28.617333333333335,21.92866666666667 L 29.972,16.298333333333332 L 29.972,12.149666666666667 L 28.913666666666668,8.382 L 27.474333333333334,5.672666666666666 L 24.934333333333335,2.7093333333333334 L 22.563666666666666,0.9736666666666667 L 20.828,0.08466666666666667 L 19.939,0.08466666666666667 L 15.578666666666667,4.8260000000000005 L 14.943666666666667,5.164666666666667 L 10.625666666666667,0.42333333333333334 L 9.990666666666666,0.0 Z" fill="black" /></svg>