<?xml version="1.0" encoding="utf-8" ?>
<svg baseProfile="tiny" height="42.672mm" version="1.2" viewBox="0 0 31.115000000000002 42.672" width="31.115000000000002mm" xmlns="http://www.w3.org/2000/svg" xmlns:ev="http://www.w3.org/2001/xml-events" xmlns:xlink="http://www.w3.org/1999/xlink"><defs /><path d="M 2.6246666666666667,0.0 L 2.1166666666666667,0.762 L 1.1006666666666667,5.715 L 0.042333333333333334,15.028333333333334 L 0.042333333333333334,19.939 L 1.016,23.876 L 3.556,29.675666666666668 L 5.334,32.681333333333335 L 7.62,35.77166666666667 L 10.075333333333333,38.565666666666665 L 14.054666666666666,42.07933333333333 L 14.943666666666667,42.672 L 16.171333333333333,42.672 L 19.981333333333332,39.624 L 24.384,34.62866666666667 L 27.389666666666667,29.972 L 29.972,24.34166666666667 L 30.945666666666668,20.489333333333335 L 31.115000000000002,17.356666666666666 L 30.43766666666667,8.636 L 28.913666666666668,0.508 L 28.448,0.0 L 27.770666666666667,0.21166666666666667 L 24.976666666666667,4.656666666666666 L 23.537333333333333,5.334 L 22.182666666666666,5.418666666666667 L 20.27766666666667,4.656666666666666 L 16.59466666666667,0.42333333333333334 L 15.282333333333334,0.0 L 13.885333333333334,1.0583333333333333 L 10.752666666666666,4.699 L 9.694333333333333,5.249333333333333 L 8.212666666666667,5.418666666666667 L 6.223,4.699 L 5.291666666666667,3.5983333333333336 L 3.4290000000000003,0.29633333333333334 Z" fill="black" /></svg>