<?xml version="1.0" encoding="utf-8" ?>
<svg baseProfile="tiny" height="43.561mm" version="1.2" viewBox="0 0 29.21 43.561" width="29.21mm" xmlns="http://www.w3.org/2000/svg" xmlns:ev="http://www.w3.org/2001/xml-events" xmlns:xlink="http://www.w3.org/1999/xlink"><defs /><path d="M 13.673666666666668,0.0 L 9.990666666666666,0.5926666666666667 L 5.884333333333333,2.032 L 3.81,3.5983333333333336 L 1.27,6.985 L 0.5926666666666667,8.551333333333334 L 0.0,11.176 L 0.042333333333333334,18.711333333333332 L 0.8466666666666667,24.003 L 0.254,24.934333333333335 L 1.0583333333333333,26.37366666666667 L 3.2173333333333334,28.744333333333334 L 3.8946666666666667,33.02 L 3.6406666666666667,35.179 L 4.148666666666667,36.322 L 7.408333333333333,39.92033333333333 L 10.033,42.20633333333333 L 13.081,43.51866666666667 L 15.748000000000001,43.561 L 17.78,42.968333333333334 L 19.939,41.656 L 22.013333333333335,39.708666666666666 L 25.442333333333334,35.644666666666666 L 25.611666666666668,34.882666666666665 L 25.357666666666667,32.893 L 25.99266666666667,28.78666666666667 L 28.321,26.162 L 28.956,24.976666666666667 L 28.913666666666668,24.553333333333335 L 28.363333333333333,24.13 L 29.125333333333334,18.669 L 29.21,11.557 L 28.78666666666667,9.144 L 27.728333333333335,6.604 L 25.4,3.5983333333333336 L 24.214666666666666,2.5823333333333336 L 22.30966666666667,1.6086666666666667 L 18.457333333333334,0.42333333333333334 Z" fill="black" /></svg>