<?xml version="1.0" encoding="utf-8" ?>
<svg baseProfile="tiny" height="45.931666666666665mm" version="1.2" viewBox="0 0 29.252333333333333 45.931666666666665" width="29.252333333333333mm" xmlns="http://www.w3.org/2000/svg" xmlns:ev="http://www.w3.org/2001/xml-events" xmlns:xlink="http://www.w3.org/1999/xlink"><defs /><path d="M 13.885333333333334,0.0 L 11.218333333333334,0.5926666666666667 L 8.593666666666667,1.9473333333333334 L 6.35,4.064 L 4.148666666666667,7.366 L 2.3706666666666667,10.964333333333334 L 0.762,15.917333333333334 L 0.042333333333333334,20.27766666666667 L 0.0,24.934333333333335 L 0.6773333333333333,29.633333333333333 L 2.032,34.120666666666665 L 3.81,37.888333333333335 L 6.180666666666667,41.529 L 7.8740000000000006,43.391666666666666 L 10.117666666666667,44.91566666666667 L 13.038666666666668,45.88933333333333 L 15.705666666666668,45.931666666666665 L 18.753666666666668,45.085 L 20.870333333333335,43.815 L 22.648333333333333,42.07933333333333 L 24.934333333333335,38.77733333333333 L 26.881666666666668,34.925 L 28.236333333333334,30.988 L 29.083000000000002,26.500666666666667 L 29.252333333333333,22.055666666666667 L 28.829,17.822333333333333 L 27.813,13.589 L 25.950333333333333,8.974666666666668 L 23.579666666666668,4.995333333333333 L 21.463,2.6246666666666667 L 19.219333333333335,1.1006666666666667 L 16.933333333333334,0.254 Z" fill="black" /></svg>