<?xml version="1.0" encoding="utf-8" ?>
<svg baseProfile="tiny" height="41.402mm" version="1.2" viewBox="0 0 25.781 41.402" width="25.781mm" xmlns="http://www.w3.org/2000/svg" xmlns:ev="http://www.w3.org/2001/xml-events" xmlns:xlink="http://www.w3.org/1999/xlink"><defs /><path d="M 7.493,0.0 L 5.0376666666666665,1.4816666666666667 L 3.4713333333333334,3.048 L 2.0743333333333336,4.953 L 0.9736666666666667,7.196666666666667 L 0.0,11.43 L 0.08466666666666667,15.155333333333333 L 0.4656666666666667,18.076333333333334 L 2.159,25.103666666666665 L 5.122333333333334,31.877 L 7.0696666666666665,35.052 L 10.033,38.989 L 12.361333333333334,41.402 L 13.462,41.402 L 16.256,38.39633333333333 L 18.965333333333334,34.75566666666667 L 20.997333333333334,31.411333333333335 L 23.029333333333334,26.881666666666668 L 24.384,22.733 L 25.315333333333335,18.372666666666667 L 25.781,13.673666666666668 L 25.654,10.244666666666667 L 24.934333333333335,7.408333333333333 L 23.241,4.191 L 21.166666666666668,1.8626666666666667 L 18.330333333333332,0.0 L 17.483666666666668,0.16933333333333334 L 13.97,3.9793333333333334 L 12.869333333333334,4.572 L 12.149666666666667,4.233333333333333 L 8.339666666666666,0.16933333333333334 Z" fill="black" /></svg>