<?xml version="1.0" encoding="utf-8" ?>
<svg baseProfile="tiny" height="46.016333333333336mm" version="1.2" viewBox="0 0 33.147 46.016333333333336" width="33.147mm" xmlns="http://www.w3.org/2000/svg" xmlns:ev="http://www.w3.org/2001/xml-events" xmlns:xlink="http://www.w3.org/1999/xlink"><defs /><path d="M 16.552333333333333,0.0 L 13.377333333333333,2.5823333333333336 L 9.694333333333333,4.487333333333334 L 6.180666666666667,5.503333333333334 L 1.8203333333333334,6.0536666666666665 L 0.8043333333333333,6.8580000000000005 L 0.042333333333333334,8.170333333333334 L 0.0,11.049 L 0.508,16.044333333333334 L 1.6086666666666667,21.378333333333334 L 3.048,26.035 L 5.0376666666666665,30.734 L 7.112,34.586333333333336 L 10.033,39.031333333333336 L 14.054666666666666,43.730333333333334 L 16.340666666666667,45.974000000000004 L 16.721666666666668,46.016333333333336 L 19.981333333333332,42.84133333333333 L 23.833666666666666,37.973 L 26.712333333333333,33.401 L 29.972,26.458333333333332 L 31.877,19.981333333333332 L 32.893,13.843 L 33.147,8.847666666666667 L 32.72366666666667,7.408333333333333 L 31.326666666666668,6.096 L 26.881666666666668,5.503333333333334 L 23.114,4.360333333333333 L 20.066,2.794 Z" fill="black" /></svg>