<?xml version="1.0" encoding="utf-8" ?>
<svg baseProfile="tiny" height="41.783mm" version="1.2" viewBox="0 0 25.611666666666668 41.783" width="25.611666666666668mm" xmlns="http://www.w3.org/2000/svg" xmlns:ev="http://www.w3.org/2001/xml-events" xmlns:xlink="http://www.w3.org/1999/xlink"><defs /><path d="M 7.747,0.0 L 4.783666666666667,1.778 L 3.3866666666666667,3.1326666666666667 L 2.032,4.910666666666667 L 1.016,6.815666666666667 L 0.042333333333333334,10.371666666666666 L 0.33866666666666667,16.552333333333333 L 1.016,20.489333333333335 L 1.9896666666666667,24.13 L 3.048,27.135666666666665 L 5.164666666666667,31.75 L 7.789333333333333,35.983333333333334 L 10.033,38.989 L 12.911666666666667,41.783 L 15.113,39.624 L 17.907,36.025666666666666 L 19.981333333333332,32.80833333333334 L 22.394333333333332,27.813 L 23.833666666666666,23.791333333333334 L 24.934333333333335,19.388666666666666 L 25.611666666666668,14.181666666666667 L 25.611666666666668,10.244666666666667 L 24.934333333333335,7.450666666666667 L 23.833666666666666,5.164666666666667 L 22.30966666666667,3.1326666666666667 L 19.515666666666668,0.8043333333333333 L 17.78,0.0 L 14.943666666666667,3.683 L 12.827,5.799666666666667 Z" fill="black" /></svg>