<?xml version="1.0" encoding="utf-8" ?>
<svg baseProfile="tiny" height="49.74166666666667mm" version="1.2" viewBox="0 0 30.395333333333333 49.74166666666667" width="30.395333333333333mm" xmlns="http://www.w3.org/2000/svg" xmlns:ev="http://www.w3.org/2001/xml-events" xmlns:xlink="http://www.w3.org/1999/xlink"><defs /><path d="M 9.990666666666666,0.0 L 7.958666666666667,0.762 L 5.122333333333334,2.751666666666667 L 3.1326666666666667,4.868333333333333 L 1.4816666666666667,7.535333333333334 L 0.5926666666666667,9.779 L 0.0,12.573 L 0.16933333333333334,19.727333333333334 L 1.0583333333333333,25.315333333333335 L 2.0743333333333336,29.21 L 5.0376666666666665,36.660666666666664 L 6.688666666666666,39.708666666666666 L 9.990666666666666,44.66166666666667 L 14.647333333333334,49.699333333333335 L 15.578666666666667,49.74166666666667 L 16.340666666666667,49.233666666666664 L 18.753666666666668,46.609 L 21.92866666666667,42.46033333333333 L 24.934333333333335,37.465 L 26.924,33.10466666666667 L 28.532666666666668,28.40566666666667 L 29.929666666666666,22.225 L 30.395333333333333,16.59466666666667 L 30.310666666666666,12.403666666666666 L 29.379333333333335,8.678333333333333 L 27.601333333333333,5.376333333333333 L 25.230666666666668,2.751666666666667 L 22.563666666666666,0.8466666666666667 L 20.362333333333332,0.0 L 19.473333333333333,0.16933333333333334 L 16.171333333333333,5.0376666666666665 L 14.986,5.503333333333334 L 14.097,4.910666666666667 L 11.260666666666667,0.4656666666666667 L 10.752666666666666,0.08466666666666667 Z" fill="black" /></svg>