<?xml version="1.0" encoding="utf-8" ?>
<svg baseProfile="tiny" height="42.12166666666667mm" version="1.2" viewBox="0 0 25.865666666666666 42.12166666666667" width="25.865666666666666mm" xmlns="http://www.w3.org/2000/svg" xmlns:ev="http://www.w3.org/2001/xml-events" xmlns:xlink="http://www.w3.org/1999/xlink"><defs /><path d="M 7.662333333333334,0.0 L 4.233333333333333,2.159 L 2.4130000000000003,4.233333333333333 L 1.0583333333333333,6.604 L 0.042333333333333334,10.202333333333334 L 0.042333333333333334,14.562666666666667 L 1.1006666666666667,21.378333333333334 L 2.032,24.72266666666667 L 3.302,28.151666666666667 L 5.164666666666667,32.08866666666667 L 7.366,35.602333333333334 L 10.033,39.15833333333333 L 12.996333333333334,42.12166666666667 L 16.129,38.77733333333333 L 19.007666666666665,34.882666666666665 L 20.701,32.08866666666667 L 23.029333333333334,27.051000000000002 L 24.426333333333332,22.775333333333332 L 25.357666666666667,18.457333333333334 L 25.865666666666666,13.250333333333334 L 25.781,10.075333333333333 L 24.976666666666667,6.942666666666667 L 23.579666666666668,4.402666666666667 L 21.632333333333335,2.159 L 19.473333333333333,0.635 L 18.24566666666667,0.0 L 17.78,0.127 L 12.911666666666667,5.799666666666667 L 8.255,0.254 Z" fill="black" /></svg>