<?xml version="1.0" encoding="utf-8" ?>
<svg baseProfile="tiny" height="43.561mm" version="1.2" viewBox="0 0 38.69266666666667 43.561" width="38.69266666666667mm" xmlns="http://www.w3.org/2000/svg" xmlns:ev="http://www.w3.org/2001/xml-events" xmlns:xlink="http://www.w3.org/1999/xlink"><defs /><path d="M 19.05,0.0 L 18.372666666666667,0.29633333333333334 L 17.86466666666667,0.9736666666666667 L 14.054666666666666,11.557 L 13.589,11.387666666666666 L 10.414,5.715 L 9.906,5.164666666666667 L 9.017,4.8260000000000005 L 7.789333333333333,5.0376666666666665 L 6.815666666666667,6.265333333333333 L 6.646333333333334,13.038666666666668 L 6.096,12.869333333333334 L 1.397,8.89 L 0.42333333333333334,8.932333333333334 L 0.0,9.440333333333333 L 0.0,10.244666666666667 L 1.778,14.732 L 1.27,16.256 L 1.6933333333333334,16.891000000000002 L 2.6246666666666667,17.314333333333334 L 3.9793333333333334,22.394333333333332 L 4.614333333333334,25.654 L 4.572,26.246666666666666 L 3.7253333333333334,27.008666666666667 L 4.148666666666667,28.702 L 8.763,33.528 L 19.134666666666668,43.51866666666667 L 19.473333333333333,43.561 L 31.707666666666668,31.792333333333335 L 34.501666666666665,28.78666666666667 L 34.925,27.813 L 34.967333333333336,26.924 L 34.120666666666665,26.246666666666666 L 34.07833333333333,25.696333333333335 L 34.586333333333336,23.029333333333334 L 36.068,17.314333333333334 L 37.041666666666664,16.848666666666666 L 37.422666666666665,16.256 L 36.91466666666667,14.732 L 38.608000000000004,10.414 L 38.69266666666667,9.567333333333334 L 38.184666666666665,8.89 L 37.16866666666667,8.974666666666668 L 32.639,12.869333333333334 L 32.04633333333334,13.038666666666668 L 31.877,6.223 L 31.030333333333335,5.122333333333334 L 29.718,4.8260000000000005 L 28.998333333333335,5.08 L 28.278666666666666,5.757333333333333 L 24.807333333333332,11.641666666666667 L 24.299333333333333,10.879666666666667 L 20.743333333333332,0.762 L 19.981333333333332,0.08466666666666667 Z" fill="black" /></svg>