<?xml version="1.0" encoding="utf-8" ?>
<svg baseProfile="tiny" height="41.867666666666665mm" version="1.2" viewBox="0 0 30.183666666666667 41.867666666666665" width="30.183666666666667mm" xmlns="http://www.w3.org/2000/svg" xmlns:ev="http://www.w3.org/2001/xml-events" xmlns:xlink="http://www.w3.org/1999/xlink"><defs /><path d="M 14.901333333333334,0.0 L 12.022666666666666,0.42333333333333334 L 8.128,1.905 L 6.011333333333333,3.344333333333333 L 4.0216666666666665,5.207 L 2.1166666666666667,7.831666666666667 L 0.9313333333333333,10.371666666666666 L 0.042333333333333334,13.843 L 0.0,16.975666666666665 L 1.1006666666666667,22.86 L 2.032,25.357666666666667 L 3.4713333333333334,28.151666666666667 L 5.8420000000000005,31.834666666666667 L 9.017,35.941 L 12.615333333333334,39.751 L 15.155333333333333,41.867666666666665 L 17.568333333333335,39.751 L 21.378333333333334,35.687 L 24.384,31.792333333333335 L 26.881666666666668,27.855333333333334 L 28.321,24.934333333333335 L 29.337,21.92866666666667 L 29.929666666666666,19.134666666666668 L 30.183666666666667,15.197666666666667 L 29.929666666666666,12.742333333333333 L 28.829,9.355666666666666 L 27.135666666666665,6.434666666666667 L 25.357666666666667,4.402666666666667 L 23.579666666666668,2.9210000000000003 L 20.65866666666667,1.27 L 17.356666666666666,0.254 Z" fill="black" /></svg>