<?xml version="1.0" encoding="utf-8" ?>
<svg baseProfile="tiny" height="35.89866666666667mm" version="1.2" viewBox="0 0 35.89866666666667 35.89866666666667" width="35.89866666666667mm" xmlns="http://www.w3.org/2000/svg" xmlns:ev="http://www.w3.org/2001/xml-events" xmlns:xlink="http://www.w3.org/1999/xlink"><defs /><path d="M 15.917333333333334,0.08466666666666667 L 13.250333333333334,0.5926666666666667 L 9.990666666666666,1.778 L 6.5616666666666665,4.0216666666666665 L 3.9793333333333334,6.604 L 2.1166666666666667,9.398 L 0.6773333333333333,12.911666666666667 L 0.0,16.171333333333333 L 0.042333333333333334,20.108333333333334 L 1.0583333333333333,24.172333333333334 L 2.4130000000000003,27.051000000000002 L 4.360333333333333,29.760333333333335 L 7.0696666666666665,32.300333333333334 L 9.990666666666666,34.163000000000004 L 13.292666666666667,35.348333333333336 L 15.875,35.89866666666667 L 19.939,35.89866666666667 L 23.452666666666666,35.09433333333333 L 26.289,33.909 L 29.929666666666666,31.411333333333335 L 31.919333333333334,29.294666666666668 L 34.120666666666665,25.908 L 35.221333333333334,22.944666666666667 L 35.89866666666667,19.007666666666665 L 35.814,15.917333333333334 L 34.925,12.065 L 33.69733333333333,9.313333333333333 L 31.369,5.969 L 28.871333333333332,3.683 L 25.781,1.778 L 22.606,0.5926666666666667 L 19.007666666666665,0.0 Z" fill="black" /></svg>