<?xml version="1.0" encoding="utf-8" ?>
<svg baseProfile="tiny" height="44.577mm" version="1.2" viewBox="0 0 33.48566666666667 44.577" width="33.48566666666667mm" xmlns="http://www.w3.org/2000/svg" xmlns:ev="http://www.w3.org/2001/xml-events" xmlns:xlink="http://www.w3.org/1999/xlink"><defs /><path d="M 6.8580000000000005,0.16933333333333334 L 5.376333333333333,0.6773333333333333 L 3.852333333333333,1.6086666666666667 L 2.54,2.9210000000000003 L 1.4393333333333334,4.572 L 0.042333333333333334,9.271 L 0.042333333333333334,12.996333333333334 L 0.33866666666666667,14.562666666666667 L 1.3546666666666667,17.526 L 3.2173333333333334,21.505333333333333 L 11.260666666666667,34.24766666666667 L 16.425333333333334,44.534666666666666 L 16.933333333333334,44.577 L 18.330333333333332,42.37566666666667 L 22.225,34.24766666666667 L 29.972,22.098 L 31.792333333333335,18.330333333333332 L 32.80833333333334,15.663333333333334 L 33.401,12.827 L 33.48566666666667,10.498666666666667 L 33.062333333333335,7.5776666666666666 L 32.131,4.868333333333333 L 30.861,2.836333333333333 L 28.871333333333332,1.1006666666666667 L 26.924,0.254 L 23.96066666666667,0.0 L 21.59,0.5926666666666667 L 20.023666666666667,1.4816666666666667 L 16.679333333333332,4.487333333333334 L 13.589,1.6086666666666667 L 11.895666666666667,0.5926666666666667 L 9.567333333333334,0.0 Z" fill="black" /></svg>