<?xml version="1.0" encoding="utf-8" ?>
<svg baseProfile="tiny" height="39.20066666666667mm" version="1.2" viewBox="0 0 37.16866666666667 39.20066666666667" width="37.16866666666667mm" xmlns="http://www.w3.org/2000/svg" xmlns:ev="http://www.w3.org/2001/xml-events" xmlns:xlink="http://www.w3.org/1999/xlink"><defs /><path d="M 6.434666666666667,0.16933333333333334 L 5.0376666666666665,0.8466666666666667 L 2.9633333333333334,2.5823333333333336 L 1.651,4.318 L 0.8466666666666667,5.969 L 0.0,9.736666666666666 L 0.042333333333333334,13.081 L 0.6773333333333333,15.748000000000001 L 3.9793333333333334,22.521333333333335 L 8.424333333333333,29.21 L 11.514666666666667,32.85066666666667 L 15.028333333333334,36.406666666666666 L 18.24566666666667,39.20066666666667 L 18.923000000000002,39.20066666666667 L 22.733,35.85633333333333 L 27.008666666666667,31.326666666666668 L 29.972,27.601333333333333 L 33.909,21.251333333333335 L 35.983333333333334,17.145 L 36.91466666666667,14.139333333333333 L 37.16866666666667,10.075333333333333 L 36.576,6.688666666666666 L 35.348333333333336,4.064 L 33.358666666666664,1.778 L 31.369,0.42333333333333334 L 29.972,0.0 L 28.998333333333335,0.0 L 26.627666666666666,0.9313333333333333 L 23.791333333333334,2.9633333333333334 L 21.293666666666667,5.757333333333333 L 19.261666666666667,9.313333333333333 L 18.457333333333334,9.652000000000001 L 17.822333333333333,9.186333333333334 L 16.425333333333334,6.5616666666666665 L 14.986,4.572 L 12.742333333333333,2.4130000000000003 L 10.710333333333333,1.016 L 8.932333333333334,0.16933333333333334 Z" fill="black" /></svg>