<?xml version="1.0" encoding="utf-8" ?>
<svg baseProfile="tiny" height="42.545mm" version="1.2" viewBox="0 0 29.972 42.545" width="29.972mm" xmlns="http://www.w3.org/2000/svg" xmlns:ev="http://www.w3.org/2001/xml-events" xmlns:xlink="http://www.w3.org/1999/xlink"><defs /><path d="M 14.054666666666666,0.0 L 11.049,0.508 L 8.551333333333334,1.4393333333333334 L 6.477,2.5823333333333336 L 3.81,4.995333333333333 L 2.2013333333333334,7.154333333333334 L 1.016,9.525 L 0.042333333333333334,13.165666666666667 L 0.0,15.578666666666667 L 1.016,22.521333333333335 L 2.7093333333333334,27.432000000000002 L 4.445,30.988 L 6.731,34.544 L 10.033,38.481 L 15.028333333333334,42.545 L 17.737666666666666,40.513 L 20.870333333333335,37.507333333333335 L 23.918333333333333,33.655 L 26.331333333333333,29.548666666666666 L 28.067,25.442333333333334 L 29.167666666666666,21.59 L 29.972,16.51 L 29.972,13.335 L 29.252333333333333,10.287 L 28.067,7.62 L 26.754666666666665,5.672666666666666 L 24.765,3.5983333333333336 L 22.479,1.9896666666666667 L 20.023666666666667,0.8466666666666667 L 16.806333333333335,0.08466666666666667 Z" fill="black" /></svg>