<?xml version="1.0" encoding="utf-8" ?>
<svg baseProfile="tiny" height="42.88366666666667mm" version="1.2" viewBox="0 0 29.760333333333335 42.88366666666667" width="29.760333333333335mm" xmlns="http://www.w3.org/2000/svg" xmlns:ev="http://www.w3.org/2001/xml-events" xmlns:xlink="http://www.w3.org/1999/xlink"><defs /><path d="M 14.605,0.0 L 11.684000000000001,0.9313333333333333 L 8.001,2.9210000000000003 L 6.223,4.402666666666667 L 4.0216666666666665,6.773333333333333 L 2.1166666666666667,9.736666666666666 L 0.8043333333333333,12.911666666666667 L 0.042333333333333334,16.425333333333334 L 0.0,18.923000000000002 L 0.254,21.759333333333334 L 1.1853333333333333,25.273 L 4.233333333333333,31.199666666666666 L 6.773333333333333,34.882666666666665 L 10.033,38.735 L 14.605,42.84133333333333 L 15.028333333333334,42.88366666666667 L 19.981333333333332,38.481 L 22.987000000000002,34.882666666666665 L 25.781,30.776333333333334 L 27.982333333333333,26.67 L 28.829,24.468666666666667 L 29.591,21.124333333333333 L 29.760333333333335,17.737666666666666 L 29.337,14.478 L 28.363333333333333,11.345333333333333 L 26.881666666666668,8.424333333333333 L 25.230666666666668,6.180666666666667 L 22.987000000000002,3.9370000000000003 L 19.981333333333332,1.8626666666666667 L 17.187333333333335,0.5926666666666667 Z" fill="black" /></svg>