<?xml version="1.0" encoding="utf-8" ?>
<svg baseProfile="tiny" height="42.333333333333336mm" version="1.2" viewBox="0 0 32.893 42.333333333333336" width="32.893mm" xmlns="http://www.w3.org/2000/svg" xmlns:ev="http://www.w3.org/2001/xml-events" xmlns:xlink="http://www.w3.org/1999/xlink"><defs /><path d="M 0.5503333333333333,3.0056666666666665 L 0.0,3.6406666666666667 L 0.0,27.855333333333334 L 0.508,30.141333333333336 L 1.524,32.342666666666666 L 5.0376666666666665,35.941 L 8.255,38.354 L 12.361333333333334,40.68233333333333 L 16.340666666666667,42.333333333333336 L 19.939,40.97866666666667 L 24.976666666666667,38.14233333333333 L 27.94,35.85633333333333 L 30.43766666666667,33.48566666666667 L 31.665333333333333,31.75 L 32.639,29.21 L 32.893,27.601333333333333 L 32.766,3.3866666666666667 L 32.17333333333333,2.9633333333333334 L 31.580666666666666,3.048 L 29.972,4.402666666666667 L 27.347333333333335,5.588 L 25.865666666666666,5.8420000000000005 L 23.410333333333334,5.672666666666666 L 21.844,5.164666666666667 L 20.023666666666667,4.106333333333334 L 18.542,2.6246666666666667 L 17.229666666666667,0.381 L 16.679333333333332,0.0 L 16.171333333333333,0.0 L 15.663333333333334,0.381 L 14.647333333333334,2.243666666666667 L 12.996333333333334,3.9793333333333334 L 11.218333333333334,5.08 L 9.398,5.672666666666666 L 7.239,5.8420000000000005 L 5.164666666666667,5.461 L 3.2173333333333334,4.572 L 1.4816666666666667,3.1326666666666667 Z" fill="black" /></svg>