<?xml version="1.0" encoding="utf-8" ?>
<svg baseProfile="tiny" height="43.307mm" version="1.2" viewBox="0 0 30.05666666666667 43.307" width="30.05666666666667mm" xmlns="http://www.w3.org/2000/svg" xmlns:ev="http://www.w3.org/2001/xml-events" xmlns:xlink="http://www.w3.org/1999/xlink"><defs /><path d="M 14.816666666666666,0.0 L 12.065,0.5926666666666667 L 8.974666666666668,1.9473333333333334 L 5.969,4.148666666666667 L 3.81,6.434666666666667 L 2.159,8.932333333333334 L 0.7196666666666667,12.361333333333334 L 0.0,15.790333333333333 L 0.0,19.261666666666667 L 0.7196666666666667,22.733 L 1.9896666666666667,26.119666666666667 L 3.683,29.675666666666668 L 5.799666666666667,33.274 L 9.990666666666666,38.69266666666667 L 13.038666666666668,41.69833333333333 L 15.070666666666668,43.307 L 19.981333333333332,38.77733333333333 L 23.537333333333333,34.29 L 25.823333333333334,30.649333333333335 L 27.559,27.220333333333333 L 29.21,23.071666666666665 L 29.929666666666666,20.235333333333333 L 30.05666666666667,16.933333333333334 L 29.929666666666666,14.859 L 28.871333333333332,11.091333333333333 L 27.347333333333335,8.043333333333333 L 25.569333333333333,5.672666666666666 L 23.114,3.344333333333333 L 20.743333333333332,1.778 L 17.399,0.42333333333333334 Z" fill="black" /></svg>