<?xml version="1.0" encoding="utf-8" ?>
<svg baseProfile="tiny" height="37.888333333333335mm" version="1.2" viewBox="0 0 32.681333333333335 37.888333333333335" width="32.681333333333335mm" xmlns="http://www.w3.org/2000/svg" xmlns:ev="http://www.w3.org/2001/xml-events" xmlns:xlink="http://www.w3.org/1999/xlink"><defs /><path d="M 4.614333333333334,0.127 L 3.302,0.7196666666666667 L 2.1166666666666667,1.778 L 0.7196666666666667,4.402666666666667 L 0.0,7.323666666666667 L 0.042333333333333334,10.329333333333334 L 0.508,12.192 L 2.1166666666666667,15.451666666666666 L 5.757333333333333,19.431 L 5.0376666666666665,24.045333333333332 L 5.376333333333333,26.077333333333335 L 6.0536666666666665,27.855333333333334 L 8.551333333333334,30.861 L 13.673666666666668,34.62866666666667 L 16.383,37.888333333333335 L 18.753666666666668,34.882666666666665 L 24.426333333333332,30.607 L 26.627666666666666,27.855333333333334 L 27.389666666666667,25.823333333333334 L 27.643666666666668,24.045333333333332 L 26.924,19.473333333333333 L 29.972,16.298333333333332 L 30.861,15.028333333333334 L 31.919333333333334,12.954 L 32.42733333333334,11.260666666666667 L 32.681333333333335,7.662333333333334 L 32.131,4.868333333333333 L 31.326666666666668,2.9210000000000003 L 29.929666666666666,1.1006666666666667 L 27.897666666666666,0.08466666666666667 L 26.035,0.08466666666666667 L 24.765,0.5926666666666667 L 23.283333333333335,1.905 L 20.997333333333334,6.011333333333333 L 19.473333333333333,7.789333333333333 L 17.356666666666666,8.720666666666666 L 15.324666666666667,8.720666666666666 L 13.927666666666667,8.212666666666667 L 12.446,7.0696666666666665 L 9.948333333333334,2.667 L 8.551333333333334,1.016 L 6.688666666666666,0.08466666666666667 Z" fill="black" /></svg>