<?xml version="1.0" encoding="utf-8" ?>
<svg baseProfile="tiny" height="42.88366666666667mm" version="1.2" viewBox="0 0 29.972 42.88366666666667" width="29.972mm" xmlns="http://www.w3.org/2000/svg" xmlns:ev="http://www.w3.org/2001/xml-events" xmlns:xlink="http://www.w3.org/1999/xlink"><defs /><path d="M 14.816666666666666,0.0 L 11.218333333333334,1.1853333333333333 L 8.043333333333333,2.9210000000000003 L 5.969,4.656666666666666 L 4.0216666666666665,6.773333333333333 L 2.1166666666666667,9.736666666666666 L 0.8043333333333333,12.869333333333334 L 0.042333333333333334,16.340666666666667 L 0.0,20.108333333333334 L 0.4656666666666667,22.86 L 1.524,26.035 L 5.291666666666667,32.85066666666667 L 9.990666666666666,38.565666666666665 L 15.028333333333334,42.88366666666667 L 18.584333333333333,39.92033333333333 L 21.547666666666668,36.87233333333334 L 24.680333333333333,32.85066666666667 L 26.289,30.268333333333334 L 28.151666666666667,26.712333333333333 L 29.252333333333333,23.833666666666666 L 29.929666666666666,20.701 L 29.972,16.806333333333335 L 29.252333333333333,13.208 L 28.151666666666667,10.329333333333334 L 26.797,7.958666666666667 L 24.934333333333335,5.588 L 21.886333333333333,2.9210000000000003 L 19.981333333333332,1.778 L 17.018,0.508 Z" fill="black" /></svg>